<svg width="839" height="112" viewBox="0 0 839 112" fill="none" xmlns="http://www.w3.org/2000/svg">
<path fill-rule="evenodd" clip-rule="evenodd" d="M35.029 1.46178C13.29 6.17478 0 23.4178 0 46.9058C0 74.1028 17.349 92.1198 44.97 93.6068C56.333 94.2188 65.391 92.3978 74.117 87.7468L79.97 84.6268V66.7668V48.9058H65.913H51.855L52.163 53.1558L52.47 57.4058L60.72 57.6958L68.97 57.9868V68.3748V78.7618L63.22 81.0558C58.559 82.9158 55.576 83.3488 47.47 83.3408C35.112 83.3278 29.301 81.1058 22.436 73.7658C14.907 65.7168 13.47 61.4918 13.47 47.4058C13.47 36.5768 13.723 34.8688 16.06 29.9058C19.787 21.9918 23.233 18.3938 30.523 14.8048C41.878 9.21478 53.859 9.64378 66.611 16.0958C69.989 17.8048 73.452 18.9348 74.309 18.6058C75.165 18.2778 76.62 16.5498 77.542 14.7668C79.176 11.6058 79.159 11.4778 76.854 9.61078C70.073 4.11978 56.653 -0.124223 46.47 0.00277715C43.72 0.0367772 38.571 0.693777 35.029 1.46178ZM98.97 46.7858V92.9058H105.47H111.97V73.8598V54.8148L118.706 55.1098L125.442 55.4058L131.456 63.5358C134.764 68.0068 140.951 76.4438 145.206 82.2858L152.941 92.9058H159.946H166.95L153.945 75.1808C146.792 65.4328 140.014 56.3908 138.881 55.0888C137.749 53.7858 136.968 52.6168 137.146 52.4908C137.324 52.3638 139.687 51.4378 142.396 50.4328C151.564 47.0328 158.97 36.6838 158.97 27.2738C158.97 20.3028 156.674 14.5148 152.102 9.96178C145.053 2.94278 140.348 1.73678 117.72 1.15078L98.97 0.664776V46.7858ZM177.97 32.3008C177.97 60.9578 178.145 64.2488 179.978 70.0508C184.663 84.8818 197.682 93.9058 214.394 93.9058C230.083 93.9058 242.663 85.7248 248.224 71.9058C250.323 66.6878 250.454 64.7218 250.766 33.6068L251.094 0.806778L244.782 1.10678L238.47 1.40578L237.97 33.9058C237.41 70.2848 237.348 70.6338 230.254 77.0348C225.086 81.6978 220.317 83.2248 212.477 82.7258C203.766 82.1708 197.535 78.2858 193.47 70.8748L190.47 65.4058L190.157 33.1558L189.845 0.905777H183.907H177.97V32.3008ZM266.97 5.90578V10.9058H292.077C314.139 10.9058 317.113 11.0908 316.6 12.4268C316.279 13.2638 304.531 30.0878 290.493 49.8148C268.46 80.7778 264.97 86.1758 264.97 89.2938V92.9058H299.47H333.97V87.9058V82.9058H307.97C293.67 82.9058 281.97 82.6278 281.97 82.2878C281.97 81.9478 293.67 65.2128 307.97 45.0998C331.03 12.6668 333.97 8.09978 333.97 4.71878V0.905777H300.47H266.97V5.90578ZM349.97 46.8578V92.9058H356.48H362.99L362.73 47.1558L362.47 1.40578L356.22 1.10778L349.97 0.810776V46.8578ZM385.97 46.9058V92.9058H411.97H437.97V87.9268V82.9478L418.22 82.6768L398.47 82.4058L398.209 41.6558L397.948 0.905777H391.959H385.97V46.9058ZM451.97 46.9058V92.9058H457.97H463.97V71.9058V50.9058H468.758C474.385 50.9058 474.496 51.0078 496.029 75.9058C503.401 84.4308 509.892 91.7368 510.452 92.1408C511.012 92.5448 514.508 92.8818 518.22 92.8908L524.971 92.9058L507.22 71.7158C497.458 60.0618 487.992 49.0368 486.187 47.2158C484.381 45.3958 483.319 43.9058 483.827 43.9058C484.735 43.9058 521.97 2.43378 521.97 1.42278C521.97 0.432775 511.048 0.913777 508.767 2.00378C507.504 2.60778 500.284 10.1458 492.722 18.7538C472.067 42.2708 473.564 40.9058 468.419 40.9058H463.97V20.9058V0.905777H457.97H451.97V46.9058ZM536.637 1.57278C536.27 1.93878 535.97 22.6388 535.97 47.5728V92.9058H542.47H548.97V46.9058V0.905777H543.137C539.928 0.905777 537.003 1.20578 536.637 1.57278ZM572.637 1.57278C572.27 1.93878 571.97 22.6388 571.97 47.5728V92.9058H577.457H582.945L583.207 57.5788L583.47 22.2508L607.97 54.2648C639.639 95.6468 637.185 92.9058 642.574 92.9058H646.97V51.9058V10.9058H710.97H774.97V48.2888V85.6728L772.72 86.2758C771.483 86.6068 762.752 86.8848 753.318 86.8918L736.166 86.9058L735.174 84.0618C733.59 79.5168 728.243 74.1758 723.441 72.3418C713.913 68.7028 702.861 72.8158 698.537 81.6098C696.472 85.8088 696.465 85.8128 690.72 85.8588L684.97 85.9058V66.4768C684.97 45.8418 684.541 43.9058 679.97 43.9058C675.363 43.9058 674.97 45.7628 674.97 67.5268C674.97 94.8028 675.527 95.9058 689.296 95.9058C696.402 95.9058 696.783 96.0228 697.376 98.3878C698.25 101.871 703.331 107.375 707.498 109.352C711.865 111.425 719.473 111.561 724.026 109.648C728.173 107.906 733.83 102.313 734.617 99.1768C735.186 96.9078 735.209 96.9058 755.61 96.9058C774.159 96.9058 776.089 97.0668 776.649 98.6558C778.694 104.46 785.38 109.78 792.582 111.333C800.005 112.934 810.271 107.434 813.486 100.135L815.129 96.4058L821.762 96.7508C825.41 96.9398 830.096 96.5858 832.176 95.9618C837.968 94.2268 838.97 91.3378 838.97 76.3808V63.7558L832.351 46.5808C828.71 37.1348 824.807 28.3928 823.677 27.1558C821.688 24.9788 821.024 24.9058 803.296 24.9058H784.97L784.955 17.1558C784.938 8.04078 783.693 5.03378 778.956 2.65778C775.737 1.04278 770.128 0.908776 705.733 0.907776L635.995 0.905777L635.733 36.2358L635.47 71.5648L613.97 43.5438C578.932 -2.12022 581.548 0.905777 577.125 0.905777C575.023 0.905777 573.003 1.20578 572.637 1.57278ZM138.836 13.9508C145.265 17.5638 148.009 24.3328 146.028 31.6918C143.468 41.1958 137.161 44.9078 122.28 45.6668L111.97 46.1928V28.4238V10.6538L123.238 11.0858C132.834 11.4528 135.148 11.8778 138.836 13.9508ZM669.17 26.1058C668.51 26.7658 667.97 28.2508 667.97 29.4058C667.97 33.5608 669.502 33.9058 687.97 33.9058C706.438 33.9058 707.97 33.5608 707.97 29.4058C707.97 25.2508 706.438 24.9058 687.97 24.9058C675.614 24.9058 670.012 25.2638 669.17 26.1058ZM823.098 49.7338C828.967 65.0528 828.97 65.0688 828.97 75.9838V86.9058H822.078C815.575 86.9058 815.152 86.7658 814.564 84.4238C813.637 80.7318 808.031 74.8388 803.479 72.7708C798.617 70.5618 793.094 70.4098 788.438 72.3548L784.97 73.8038V53.8298V33.8558L801.098 34.1308L817.226 34.4058L823.098 49.7338ZM723.212 83.6558C726.714 87.3378 727.444 90.8358 725.622 95.1978C722.595 102.441 713.591 103.81 708.53 97.7948C702.626 90.7778 707.112 80.9058 716.206 80.9058C719.694 80.9058 721.133 81.4708 723.212 83.6558ZM801.603 82.6778C809.32 88.9298 806.109 100.273 796.248 101.596C792.403 102.111 791.71 101.846 788.498 98.6338C784.63 94.7658 783.902 90.4598 786.366 86.0158C789.097 81.0868 797.395 79.2688 801.603 82.6778Z" fill="black"/>
</svg>
