<svg width="174" height="174" viewBox="0 0 174 174" fill="none" xmlns="http://www.w3.org/2000/svg">
<g filter="url(#filter0_d_42_29)">
<circle cx="87" cy="86" r="50" fill="#FF3D00"/>
</g>
<path d="M104.927 86.0791V71.6513C104.927 71.284 104.781 70.9318 104.521 70.6721L97.2544 63.4056C96.9948 63.1459 96.6426 63 96.2754 63H69.3847C68.62 63 68 63.62 68 64.3847V107.773C68 108.538 68.62 109.158 69.3847 109.158H84.1554" stroke="black" stroke-width="4" stroke-linecap="round" stroke-linejoin="round"/>
<path d="M77.2317 81.4633H95.695M77.2317 72.2317H86.4633M77.2317 90.695H84.1554" stroke="black" stroke-width="4" stroke-linecap="round" stroke-linejoin="round"/>
<path d="M100.205 97.4785L102.513 95.1706C103.523 94.1599 105.162 94.1599 106.173 95.1706C107.183 96.1812 107.183 97.8198 106.173 98.8305L103.865 101.138M100.205 97.4785L93.3017 104.382C92.9558 104.728 92.7287 105.175 92.6535 105.658L92.0933 109.25L95.6851 108.69C96.1686 108.615 96.6154 108.388 96.9614 108.042L103.865 101.138M100.205 97.4785L103.865 101.138" stroke="black" stroke-width="4" stroke-linecap="round" stroke-linejoin="round"/>
<defs>
<filter id="filter0_d_42_29" x="0" y="0" width="174" height="174" filterUnits="userSpaceOnUse" color-interpolation-filters="sRGB">
<feFlood flood-opacity="0" result="BackgroundImageFix"/>
<feColorMatrix in="SourceAlpha" type="matrix" values="0 0 0 0 0 0 0 0 0 0 0 0 0 0 0 0 0 0 127 0" result="hardAlpha"/>
<feOffset dy="1"/>
<feGaussianBlur stdDeviation="18.5"/>
<feComposite in2="hardAlpha" operator="out"/>
<feColorMatrix type="matrix" values="0 0 0 0 1 0 0 0 0 0.24 0 0 0 0 0 0 0 0 1 0"/>
<feBlend mode="normal" in2="BackgroundImageFix" result="effect1_dropShadow_42_29"/>
<feBlend mode="normal" in="SourceGraphic" in2="effect1_dropShadow_42_29" result="shape"/>
</filter>
</defs>
</svg>
