<svg width="174" height="174" viewBox="0 0 174 174" fill="none" xmlns="http://www.w3.org/2000/svg">
<g filter="url(#filter0_d_42_31)">
<circle cx="87" cy="86" r="50" fill="#FF3D00"/>
</g>
<path d="M68 105.862V62.3875C68 61.6212 68.6212 61 69.3875 61H96.3316C96.6995 61 97.0524 61.1462 97.3126 61.4064L104.594 68.6874C104.854 68.9476 105 69.3005 105 69.6685V105.862C105 106.629 104.379 107.25 103.612 107.25H69.3875C68.6212 107.25 68 106.629 68 105.862Z" stroke="black" stroke-width="3" stroke-linecap="round" stroke-linejoin="round"/>
<path d="M95.75 61V68.8625C95.75 69.6288 96.3711 70.25 97.1375 70.25H105" stroke="black" stroke-width="3" stroke-linecap="round" stroke-linejoin="round"/>
<path d="M93.5 84H95.95C96.5299 84 97 84.4701 97 85.05V96.95C97 97.5299 96.5299 98 95.95 98H77.05C76.4701 98 76 97.5299 76 96.95V85.05C76 84.4701 76.4701 84 77.05 84H79.5M93.5 84V77C93.5 74.6667 92.1 70 86.5 70C80.9 70 79.5 74.6667 79.5 77V84M93.5 84H79.5" stroke="black" stroke-width="3" stroke-linecap="round" stroke-linejoin="round"/>
<defs>
<filter id="filter0_d_42_31" x="0" y="0" width="174" height="174" filterUnits="userSpaceOnUse" color-interpolation-filters="sRGB">
<feFlood flood-opacity="0" result="BackgroundImageFix"/>
<feColorMatrix in="SourceAlpha" type="matrix" values="0 0 0 0 0 0 0 0 0 0 0 0 0 0 0 0 0 0 127 0" result="hardAlpha"/>
<feOffset dy="1"/>
<feGaussianBlur stdDeviation="18.5"/>
<feComposite in2="hardAlpha" operator="out"/>
<feColorMatrix type="matrix" values="0 0 0 0 1 0 0 0 0 0.24 0 0 0 0 0 0 0 0 1 0"/>
<feBlend mode="normal" in2="BackgroundImageFix" result="effect1_dropShadow_42_31"/>
<feBlend mode="normal" in="SourceGraphic" in2="effect1_dropShadow_42_31" result="shape"/>
</filter>
</defs>
</svg>
