<svg width="223" height="30" viewBox="0 0 223 30" fill="none" xmlns="http://www.w3.org/2000/svg">
<path fill-rule="evenodd" clip-rule="evenodd" d="M9.31078 0.39291C3.53251 1.65971 0 6.29445 0 12.6078C0 19.918 4.6114 24.7608 11.9531 25.1605C14.9734 25.325 17.3811 24.8355 19.7005 23.5854L21.2562 22.7468V17.9462V13.1453H17.5198H13.7832L13.865 14.2877L13.9466 15.4301L16.1395 15.508L18.3324 15.5862V18.3784V21.1703L16.804 21.7869C15.5651 22.2869 14.7722 22.4033 12.6176 22.4011C9.33284 22.3976 7.78827 21.8004 5.96354 19.8274C3.96231 17.664 3.58035 16.5283 3.58035 12.7422C3.58035 9.83144 3.6476 9.37235 4.26878 8.03835C5.25943 5.91115 6.17538 4.94405 8.11308 3.97936C11.1313 2.47683 14.3158 2.59214 17.7053 4.32637C18.6032 4.78573 19.5237 5.08946 19.7515 5.00103C19.979 4.91287 20.3658 4.4484 20.6108 3.96915C21.0451 3.11951 21.0406 3.0851 20.428 2.58327C18.6256 1.10735 15.0585 -0.0333898 12.3518 0.000746469C11.6209 0.0098853 10.2523 0.18648 9.31078 0.39291ZM26.3064 12.5755V24.9721H28.0341H29.7619V19.8527V14.7336L31.5523 14.8129L33.3427 14.8925L34.9413 17.0777C35.8206 18.2795 37.4651 20.5473 38.5961 22.1175L40.652 24.9721H42.514H44.3757L40.9189 20.2078C39.0176 17.5876 37.216 15.1572 36.9149 14.8073C36.614 14.457 36.4064 14.1428 36.4537 14.109C36.501 14.0748 37.1291 13.8259 37.8492 13.5558C40.286 12.6419 42.2546 9.8602 42.2546 7.3309C42.2546 5.45717 41.6443 3.90142 40.429 2.67762C38.5554 0.790987 37.3048 0.466827 31.2902 0.309316L26.3064 0.178685V12.5755ZM47.3048 8.6821C47.3048 16.3848 47.3513 17.2694 47.8385 18.8289C49.0838 22.8153 52.5443 25.2409 56.9864 25.2409C61.1565 25.2409 64.5003 23.0419 65.9785 19.3275C66.5364 17.925 66.5712 17.3965 66.6541 9.03314L66.7413 0.216853L65.0636 0.29749L63.3858 0.377858L63.2529 9.11351C63.1041 18.8918 63.0876 18.9856 61.202 20.7061C59.8283 21.9595 58.5607 22.3699 56.4768 22.2358C54.1614 22.0866 52.5052 21.0424 51.4247 19.0504L50.6273 17.5804L50.5441 8.91192L50.4612 0.243463H48.8829H47.3048V8.6821ZM70.9612 1.58741V2.93136H77.6347C83.4988 2.93136 84.2893 2.98108 84.153 3.34018C84.0676 3.56516 80.945 8.08727 77.2137 13.3897C71.3572 21.7122 70.4296 23.1631 70.4296 24.0012V24.9721H79.5998H88.7699V23.6281V22.2842H81.8591C78.0581 22.2842 74.9482 22.2095 74.9482 22.1181C74.9482 22.0267 78.0581 17.5285 81.8591 12.1223C87.9885 3.40469 88.7699 2.17713 88.7699 1.26836V0.243463H79.8656H70.9612V1.58741ZM93.0228 12.5949V24.9721H94.7531H96.4835L96.4144 12.675L96.3453 0.377858L94.684 0.297758L93.0228 0.217928V12.5949ZM102.592 12.6078V24.9721H109.502H116.413V23.6338V22.2955L111.164 22.2226L105.914 22.1498L105.845 11.1966L105.775 0.243463H104.184H102.592V12.6078ZM120.135 12.6078V24.9721H121.729H123.324V19.3275V13.6829H124.597C126.093 13.6829 126.122 13.7103 131.846 20.4027C133.805 22.6941 135.53 24.6579 135.679 24.7664C135.828 24.875 136.757 24.9656 137.744 24.968L139.538 24.9721L134.82 19.2764C132.225 16.144 129.709 13.1806 129.23 12.6911C128.749 12.2019 128.467 11.8014 128.602 11.8014C128.844 11.8014 138.741 0.654173 138.741 0.382427C138.741 0.116325 135.838 0.245613 135.231 0.538594C134.896 0.700942 132.977 2.72708 130.967 5.04081C125.476 11.3619 125.874 10.995 124.507 10.995H123.324V5.61925V0.243463H121.729H120.135V12.6078ZM142.639 0.422745C142.542 0.521122 142.462 6.08506 142.462 12.7871V24.9721H144.19H145.917V12.6078V0.243463H144.367C143.514 0.243463 142.737 0.3241 142.639 0.422745ZM152.208 0.422745C152.111 0.521122 152.031 6.08506 152.031 12.7871V24.9721H153.489H154.948L155.018 15.4766L155.088 5.98077L161.6 14.5858C170.017 25.7088 169.365 24.9721 170.798 24.9721H171.966V13.9517V2.93136H188.977H205.989V12.9795V23.0279L205.391 23.19C205.062 23.279 202.741 23.3537 200.234 23.3556L195.674 23.3593L195.411 22.5949C194.99 21.3733 193.569 19.9376 192.292 19.4447C189.76 18.4666 186.822 19.5721 185.673 21.9358C185.124 23.0645 185.122 23.0656 183.595 23.0779L182.066 23.0905V17.8682C182.066 12.3218 181.952 11.8014 180.737 11.8014C179.513 11.8014 179.408 12.3005 179.408 18.1505C179.408 25.482 179.556 25.7784 183.216 25.7784C185.105 25.7784 185.206 25.8099 185.364 26.4456C185.596 27.3818 186.947 28.8612 188.054 29.3926C189.215 29.9498 191.237 29.9863 192.448 29.4721C193.55 29.0039 195.054 27.5006 195.263 26.6576C195.414 26.0478 195.42 26.0472 200.843 26.0472C205.773 26.0472 206.286 26.0905 206.435 26.5176C206.979 28.0777 208.756 29.5076 210.67 29.9251C212.643 30.3554 215.372 28.877 216.226 26.9152L216.663 25.9128L218.426 26.0056C219.396 26.0564 220.641 25.9612 221.194 25.7935C222.734 25.3271 223 24.5506 223 20.5303V17.1369L221.241 12.5204C220.273 9.98143 219.235 7.63167 218.935 7.29918C218.406 6.71403 218.23 6.6944 213.518 6.6944H208.647L208.643 4.61129C208.638 2.16127 208.307 1.35302 207.048 0.714382C206.193 0.280287 204.702 0.244269 187.585 0.244L169.049 0.243463L168.979 9.73979L168.909 19.2358L163.195 11.7041C153.881 -0.569893 154.577 0.243463 153.401 0.243463C152.842 0.243463 152.305 0.3241 152.208 0.422745ZM36.9029 3.74982C38.6117 4.72095 39.3411 6.54039 38.8146 8.51841C38.1341 11.073 36.4577 12.0707 32.5023 12.2747L29.7619 12.4161V7.64001V2.86362L32.7569 2.97974C35.3076 3.07838 35.9226 3.19262 36.9029 3.74982ZM177.867 7.01695C177.691 7.19435 177.548 7.5935 177.548 7.90396C177.548 9.02078 177.955 9.11351 182.864 9.11351C187.773 9.11351 188.18 9.02078 188.18 7.90396C188.18 6.78714 187.773 6.6944 182.864 6.6944C179.58 6.6944 178.091 6.79063 177.867 7.01695ZM218.781 13.3679C220.341 17.4855 220.342 17.4898 220.342 20.4236V23.3593H218.51C216.782 23.3593 216.669 23.3217 216.513 22.6922C216.266 21.6998 214.776 20.1159 213.566 19.56C212.274 18.9662 210.806 18.9254 209.568 19.4482L208.647 19.8377V14.4689V9.10007L212.934 9.17398L217.22 9.2479L218.781 13.3679ZM192.231 22.4858C193.162 23.4755 193.356 24.4157 192.872 25.5881C192.067 27.535 189.674 27.903 188.329 26.2862C186.759 24.4001 187.952 21.7466 190.369 21.7466C191.296 21.7466 191.679 21.8985 192.231 22.4858ZM213.068 22.2229C215.119 23.9034 214.265 26.9522 211.644 27.3079C210.622 27.4463 210.438 27.375 209.584 26.5117C208.556 25.472 208.363 24.3146 209.018 23.1201C209.744 21.7953 211.949 21.3066 213.068 22.2229Z" fill="black"/>
</svg>
