<svg width="174" height="174" viewBox="0 0 174 174" fill="none" xmlns="http://www.w3.org/2000/svg">
<g filter="url(#filter0_d_42_30)">
<circle cx="87" cy="86" r="50" fill="#FF3D00"/>
</g>
<path d="M79.4167 104.111L66.0292 108.574C65.0309 108.906 64 108.163 64 107.111V69.2501C64 68.5865 64.4246 67.9973 65.0541 67.7875L79.4167 63M79.4167 104.111L94.8333 109.25M79.4167 104.111V63M79.4167 63L94.8333 68.1389M94.8333 109.25L109.196 104.463C109.825 104.253 110.25 103.664 110.25 103V65.139C110.25 64.0867 109.219 63.3436 108.221 63.6764L94.8333 68.1389M94.8333 109.25V68.1389" stroke="black" stroke-width="4" stroke-linecap="round" stroke-linejoin="round"/>
<defs>
<filter id="filter0_d_42_30" x="0" y="0" width="174" height="174" filterUnits="userSpaceOnUse" color-interpolation-filters="sRGB">
<feFlood flood-opacity="0" result="BackgroundImageFix"/>
<feColorMatrix in="SourceAlpha" type="matrix" values="0 0 0 0 0 0 0 0 0 0 0 0 0 0 0 0 0 0 127 0" result="hardAlpha"/>
<feOffset dy="1"/>
<feGaussianBlur stdDeviation="18.5"/>
<feComposite in2="hardAlpha" operator="out"/>
<feColorMatrix type="matrix" values="0 0 0 0 1 0 0 0 0 0.24 0 0 0 0 0 0 0 0 1 0"/>
<feBlend mode="normal" in2="BackgroundImageFix" result="effect1_dropShadow_42_30"/>
<feBlend mode="normal" in="SourceGraphic" in2="effect1_dropShadow_42_30" result="shape"/>
</filter>
</defs>
</svg>
